<svg width="33" height="33" viewBox="0 0 33 33" fill="none" xmlns="http://www.w3.org/2000/svg">
<path d="M23.634 4.04272V18.4493C23.634 20.6813 22.95 22.4453 21.582 23.7413C20.238 25.0373 18.462 25.6853 16.254 25.6853C14.046 25.6853 12.258 25.0373 10.89 23.7413C9.54602 22.4453 8.87402 20.6813 8.87402 18.4493H13.014C13.038 19.5533 13.314 20.4293 13.842 21.0773C14.394 21.7253 15.198 22.0493 16.254 22.0493C17.31 22.0493 18.114 21.7253 18.666 21.0773C19.218 20.4053 19.494 19.5293 19.494 18.4493V4.04272H23.634Z" fill="#373737"/>
<path fill-rule="evenodd" clip-rule="evenodd" d="M24.29 29.4333V32.4747H9.29004V29.4333H24.29Z" fill="#456EFF"/>
</svg>
