<svg width="18" height="18" viewBox="0 0 18 18" fill="none" xmlns="http://www.w3.org/2000/svg">
	<path d="M5.53139 0.67041C2.9337 0.67041 0.820312 2.7838 0.820312 5.38149V12.9192C0.820312 15.5169 2.9337 17.6303 5.53139 17.6303H13.0691C15.6668 17.6303 17.7802 15.5169 17.7802 12.9192V5.38149C17.7802 2.7838 15.6668 0.67041 13.0691 0.67041H5.53139ZM5.53139 2.55484H13.0691C14.6275 2.55484 15.8958 3.82306 15.8958 5.38149V12.9192C15.8958 14.4776 14.6275 15.7459 13.0691 15.7459H5.53139C3.97296 15.7459 2.70474 14.4776 2.70474 12.9192V5.38149C2.70474 3.82306 3.97296 2.55484 5.53139 2.55484ZM14.0113 3.49706C13.7614 3.49706 13.5218 3.59632 13.3451 3.77302C13.1684 3.94972 13.0691 4.18938 13.0691 4.43927C13.0691 4.68916 13.1684 4.92882 13.3451 5.10552C13.5218 5.28222 13.7614 5.38149 14.0113 5.38149C14.2612 5.38149 14.5009 5.28222 14.6776 5.10552C14.8543 4.92882 14.9535 4.68916 14.9535 4.43927C14.9535 4.18938 14.8543 3.94972 14.6776 3.77302C14.5009 3.59632 14.2612 3.49706 14.0113 3.49706ZM9.30025 4.43927C6.70256 4.43927 4.58917 6.55266 4.58917 9.15035C4.58917 11.748 6.70256 13.8614 9.30025 13.8614C11.8979 13.8614 14.0113 11.748 14.0113 9.15035C14.0113 6.55266 11.8979 4.43927 9.30025 4.43927ZM9.30025 6.3237C10.8587 6.3237 12.1269 7.59192 12.1269 9.15035C12.1269 10.7088 10.8587 11.977 9.30025 11.977C7.74183 11.977 6.4736 10.7088 6.4736 9.15035C6.4736 7.59192 7.74183 6.3237 9.30025 6.3237Z" fill="#555555"/>
	</svg>
