<svg width="18" height="16" viewBox="0 0 18 16" fill="none" xmlns="http://www.w3.org/2000/svg">
	<path d="M2.74006 0.513916C1.51495 0.513916 0.780029 1.25037 0.780029 2.23104C0.780029 3.2117 1.51504 3.94537 2.61721 3.94537C3.84232 3.94537 4.57724 3.2117 4.57724 2.23104C4.57724 1.25037 3.84223 0.513916 2.74006 0.513916ZM0.877752 5.77975V15.7865H4.4851V5.77975H0.877752ZM7.46145 5.77975V15.7865H11.0688V10.3169C11.0688 8.68862 12.2305 8.45456 12.5793 8.45456C12.9281 8.45456 13.8609 8.80441 13.8609 10.3169V15.7865H17.3509V10.3169C17.3509 7.17617 15.9553 5.77975 14.2099 5.77975C12.4644 5.77975 11.5334 6.36095 11.0688 7.17579V5.77975H7.46145Z" fill="#555555"/>
	</svg>
