<svg width="83" height="51" viewBox="0 0 83 51" fill="none" xmlns="http://www.w3.org/2000/svg">
    <path d="M21.3479 6.60706V31.9796C21.3479 35.1195 20.3857 37.601 18.4612 39.4242C16.5705 41.2474 14.0721 42.159 10.966 42.159C7.8598 42.159 5.3445 41.2474 3.42003 39.4242C1.52933 37.601 0.583984 35.1195 0.583984 31.9796H6.40801C6.44178 33.5326 6.83005 34.765 7.57282 35.6766C8.34936 36.5882 9.4804 37.0439 10.966 37.0439C12.4515 37.0439 13.5825 36.5882 14.3591 35.6766C15.1356 34.7312 15.5239 33.4989 15.5239 31.9796V6.60706H21.3479Z" fill="#373737" />
    <path d="M23.1769 15.8636C23.1769 14.0086 23.522 12.38 24.2123 10.9779C24.9241 9.57582 25.884 8.49729 27.0919 7.74233C28.2999 6.98736 29.648 6.60988 31.1364 6.60988C32.409 6.60988 33.5199 6.86872 34.469 7.38641C35.4397 7.9041 36.1839 8.58357 36.7016 9.42482V6.86872H42.2344V24.9232H36.7016V22.3671C36.1623 23.2084 35.4073 23.8878 34.4367 24.4055C33.4876 24.9232 32.3767 25.1821 31.104 25.1821C29.6372 25.1821 28.2999 24.8046 27.0919 24.0496C25.884 23.2731 24.9241 22.1838 24.2123 20.7817C23.522 19.358 23.1769 17.7187 23.1769 15.8636ZM36.7016 15.896C36.7016 14.5155 36.3133 13.4261 35.5368 12.628C34.7818 11.8299 33.8543 11.4309 32.7542 11.4309C31.6541 11.4309 30.7158 11.8299 29.9392 12.628C29.1843 13.4046 28.8068 14.4831 28.8068 15.8636C28.8068 17.2441 29.1843 18.3442 29.9392 19.1639C30.7158 19.962 31.6541 20.3611 32.7542 20.3611C33.8543 20.3611 34.7818 19.962 35.5368 19.1639C36.3133 18.3658 36.7016 17.2765 36.7016 15.896Z" fill="#373737" />
    <path d="M62.1238 15.6048C62.1238 16.1225 62.0915 16.6617 62.0268 17.2226H49.5051C49.5914 18.3442 49.9473 19.207 50.5728 19.811C51.2199 20.3934 52.0073 20.6846 52.9348 20.6846C54.3153 20.6846 55.2752 20.1022 55.8144 18.9374H61.7032C61.4012 20.1238 60.8512 21.1915 60.0531 22.1406C59.2765 23.0897 58.2951 23.8339 57.1087 24.3732C55.9223 24.9124 54.5957 25.1821 53.1289 25.1821C51.3601 25.1821 49.7855 24.8046 48.405 24.0496C47.0245 23.2946 45.946 22.2161 45.1694 20.814C44.3929 19.412 44.0046 17.7726 44.0046 15.896C44.0046 14.0193 44.3821 12.38 45.1371 10.9779C45.9136 9.57582 46.9921 8.49729 48.3726 7.74233C49.7531 6.98736 51.3386 6.60988 53.1289 6.60988C54.8761 6.60988 56.4292 6.97657 57.7882 7.70997C59.1471 8.44337 60.204 9.48953 60.959 10.8485C61.7355 12.2074 62.1238 13.7928 62.1238 15.6048ZM56.4616 14.1488C56.4616 13.1997 56.138 12.4447 55.4909 11.8839C54.8438 11.323 54.0349 11.0426 53.0642 11.0426C52.1367 11.0426 51.3494 11.3122 50.7022 11.8515C50.0767 12.3908 49.6884 13.1565 49.5374 14.1488H56.4616Z" fill="#373737" />
    <path d="M63.9426 15.8636C63.9426 14.0086 64.2877 12.38 64.9779 10.9779C65.6898 9.57582 66.6497 8.49729 67.8576 7.74233C69.0656 6.98736 70.4137 6.60988 71.9021 6.60988C73.0884 6.60988 74.167 6.85794 75.1376 7.35406C76.1299 7.85018 76.9064 8.51886 77.4672 9.36011V0.97998H83.0001V24.9232H77.4672V22.3348C76.9496 23.1976 76.2054 23.8878 75.2347 24.4055C74.2856 24.9232 73.1747 25.1821 71.9021 25.1821C70.4137 25.1821 69.0656 24.8046 67.8576 24.0496C66.6497 23.2731 65.6898 22.1838 64.9779 20.7817C64.2877 19.358 63.9426 17.7187 63.9426 15.8636ZM77.4672 15.896C77.4672 14.5155 77.079 13.4261 76.3024 12.628C75.5475 11.8299 74.6199 11.4309 73.5199 11.4309C72.4198 11.4309 71.4814 11.8299 70.7049 12.628C69.9499 13.4046 69.5725 14.4831 69.5725 15.8636C69.5725 17.2441 69.9499 18.3442 70.7049 19.1639C71.4814 19.962 72.4198 20.3611 73.5199 20.3611C74.6199 20.3611 75.5475 19.962 76.3024 19.1639C77.079 18.3658 77.4672 17.2765 77.4672 15.896Z" fill="#373737" />
    <path fill-rule="evenodd" clip-rule="evenodd" d="M22.2708 47.4316V50.2451H1.16919V47.4316H22.2708Z" fill="#456EFF" />
</svg>