<svg width="60" height="49" viewBox="0 0 60 49" fill="none" xmlns="http://www.w3.org/2000/svg">
	<path opacity="0.1" d="M5.104 7.156L3.44762 6.03502L3.4399 6.0466L5.104 7.156ZM32.56 7.156L30.8959 8.26543L30.9037 8.27696L32.56 7.156ZM32.56 41.972L30.9036 40.851L30.8959 40.8626L32.56 41.972ZM5.104 41.972L3.43986 43.0814L3.44766 43.093L5.104 41.972ZM24.688 14.58L22.831 15.3228L22.8358 15.3346L24.688 14.58ZM13.04 14.58L14.8922 15.3346L14.897 15.3228L13.04 14.58ZM12.144 31.732L10.1749 32.0821L10.1763 32.0898L12.144 31.732ZM14.192 36.34L12.6735 37.6416L12.6984 37.6707L12.7245 37.6988L14.192 36.34ZM23.472 36.34L21.9801 35.008L21.9772 35.0113L23.472 36.34ZM25.584 31.732L27.5518 32.0898L27.5531 32.0821L25.584 31.732ZM2.88 24.5C2.88 17.3887 4.2485 12.0448 6.7681 8.2654L3.4399 6.0466C0.327496 10.7152 -1.12 16.9339 -1.12 24.5H2.88ZM6.76034 8.27695C9.15667 4.7361 13.0339 2.82 18.864 2.82V-1.18C12.0648 -1.18 6.76866 1.12789 3.44766 6.03504L6.76034 8.27695ZM18.864 2.82C24.6951 2.82 28.543 4.73599 30.8959 8.2654L34.2241 6.0466C30.945 1.128 25.6622 -1.18 18.864 -1.18V2.82ZM30.9037 8.27696C33.46 12.0542 34.848 17.3935 34.848 24.5H38.848C38.848 16.9292 37.3773 10.7058 34.2163 6.03504L30.9037 8.27696ZM34.848 24.5C34.848 31.6975 33.4578 37.077 30.9037 40.851L34.2163 43.093C37.3795 38.419 38.848 32.1505 38.848 24.5H34.848ZM30.8959 40.8626C28.543 44.392 24.6951 46.308 18.864 46.308V50.308C25.6622 50.308 30.945 48 34.2241 43.0814L30.8959 40.8626ZM18.864 46.308C13.0339 46.308 9.15667 44.3919 6.76034 40.851L3.44766 43.093C6.76866 48.0001 12.0648 50.308 18.864 50.308V46.308ZM6.7681 40.8626C4.25062 37.0864 2.88 31.7021 2.88 24.5H-1.12C-1.12 32.1459 0.325377 38.4096 3.4399 43.0814L6.7681 40.8626ZM28.096 24.5C28.096 20.0935 27.623 16.4833 26.5402 13.8254L22.8358 15.3346C23.6303 17.2847 24.096 20.2879 24.096 24.5H28.096ZM26.545 13.8372C25.9335 12.3086 24.9478 11.0656 23.5625 10.2283C22.1998 9.40469 20.5943 9.06 18.864 9.06V13.06C20.0777 13.06 20.9149 13.302 21.4935 13.6517C22.0496 13.9878 22.5038 14.5047 22.831 15.3228L26.545 13.8372ZM18.864 9.06C17.1337 9.06 15.5282 9.40469 14.1655 10.2283C12.7802 11.0656 11.7945 12.3086 11.183 13.8372L14.897 15.3228C15.2242 14.5047 15.6784 13.9878 16.2345 13.6517C16.8131 13.302 17.6503 13.06 18.864 13.06V9.06ZM11.1878 13.8254C10.105 16.4833 9.632 20.0935 9.632 24.5H13.632C13.632 20.2879 14.0977 17.2847 14.8922 15.3346L11.1878 13.8254ZM9.632 24.5C9.632 27.4679 9.80569 30.0054 10.1749 32.0821L14.1131 31.3819C13.7996 29.6186 13.632 27.3348 13.632 24.5H9.632ZM10.1763 32.0898C10.5676 34.2419 11.3742 36.1258 12.6735 37.6416L15.7105 35.0384C14.9618 34.1649 14.4031 32.9768 14.1117 31.3742L10.1763 32.0898ZM12.7245 37.6988C14.2761 39.3745 16.4376 40.068 18.864 40.068V36.068C17.1944 36.068 16.2413 35.6095 15.6595 34.9812L12.7245 37.6988ZM18.864 40.068C21.2853 40.068 23.4491 39.3762 24.9668 37.6687L21.9772 35.0113C21.4469 35.6078 20.5387 36.068 18.864 36.068V40.068ZM24.9639 37.672C26.3192 36.154 27.1572 34.2595 27.5517 32.0898L23.6163 31.3742C23.3281 32.9591 22.7581 34.1366 21.9801 35.008L24.9639 37.672ZM27.5531 32.0821C27.9223 30.0054 28.096 27.4679 28.096 24.5H24.096C24.096 27.3348 23.9284 29.6186 23.6149 31.3819L27.5531 32.0821ZM41.478 11.956H39.478V13.956H41.478V11.956ZM41.478 1.78V-0.220001H39.478V1.78H41.478ZM59.206 1.78H61.206V-0.220001H59.206V1.78ZM59.206 48.5V50.5H61.206V48.5H59.206ZM47.814 48.5H45.814V50.5H47.814V48.5ZM47.814 11.956H49.814V9.956H47.814V11.956ZM43.478 11.956V1.78H39.478V11.956H43.478ZM41.478 3.78H59.206V-0.220001H41.478V3.78ZM57.206 1.78V48.5H61.206V1.78H57.206ZM59.206 46.5H47.814V50.5H59.206V46.5ZM49.814 48.5V11.956H45.814V48.5H49.814ZM47.814 9.956H41.478V13.956H47.814V9.956Z" fill="#456EFF" fill-opacity="0.5"/>
</svg>
