<svg width="12" height="20" viewBox="0 0 12 20" fill="none" xmlns="http://www.w3.org/2000/svg">
	<path fill-rule="evenodd" clip-rule="evenodd" d="M11.8203 1.43778C11.8203 1.15489 11.5953 0.925293 11.3203 0.925293H8.82031C6.05831 0.925293 3.82031 2.99064 3.82031 5.53772V8.30518H1.32031C1.04431 8.30518 0.820312 8.53477 0.820312 8.81767V11.4826C0.820312 11.7655 1.04431 11.9951 1.32031 11.9951H3.82031V18.8625C3.82031 19.1454 4.04431 19.375 4.32031 19.375H7.32031C7.59531 19.375 7.82031 19.1454 7.82031 18.8625V11.9951H10.4393C10.6643 11.9951 10.8613 11.8414 10.9223 11.62L11.6433 8.95502C11.7323 8.62907 11.4923 8.30518 11.1623 8.30518H7.82031V5.53772C7.82031 5.0283 8.26731 4.61523 8.82031 4.61523H11.3203C11.5953 4.61523 11.8203 4.38564 11.8203 4.10274V1.43778Z" fill="#555555"/>
	</svg>
