<svg width="19" height="18" viewBox="0 0 19 18" fill="none" xmlns="http://www.w3.org/2000/svg">
	<path fill-rule="evenodd" clip-rule="evenodd" d="M5.8572 17.3503C13.1032 17.3503 17.2952 11.5838 17.2952 6.11139C17.2952 5.96072 18.3252 5.05463 18.7662 3.16559C18.8562 2.78225 18.4922 2.47988 18.1492 2.6408C17.2692 3.05489 16.3762 2.7269 15.9882 2.2554C14.4962 0.587755 12.0012 0.507807 10.4142 2.07603C9.3912 3.08769 8.9572 4.59442 9.2742 6.03247C5.9232 6.27744 3.6222 4.64977 1.7302 2.41838C1.4862 2.12831 1.0332 2.28103 0.982204 2.66437C0.702204 4.79839 0.614205 9.98686 5.6302 12.9665C4.7592 14.2498 3.0542 15.0072 1.1562 15.3321C0.736204 15.4049 0.636204 16.0015 1.0202 16.1942C2.5242 16.9526 4.1772 17.3493 5.8572 17.3473" fill="#555555"/>
	</svg>
